<svg id="noun_purpose_2973042" xmlns="http://www.w3.org/2000/svg" width="96.462" height="98.216" viewBox="0 0 96.462 98.216">
  <g id="그룹_29" data-name="그룹 29">
    <path id="패스_20" data-name="패스 20" d="M11.015,40H4V50.523H5.754V47.015H9.262V75.077h3.508V55.785h3.508V75.077h3.508V47.015h3.508v3.508h1.754V40H11.015Z" transform="translate(-4 23.139)" fill="#fff"/>
    <circle id="타원_6" data-name="타원 6" cx="3.5" cy="3.5" r="3.5" transform="translate(6.731 51.108)" fill="#fff"/>
    <path id="패스_21" data-name="패스 21" d="M47.776,27.328,43.953,39.093,53.96,31.822l10.007,7.271L60.144,27.328l10.009-7.271H57.784L53.96,8.292,50.137,20.057H37.767Z" transform="translate(21.455 -0.764)" fill="#fff"/>
    <path id="패스_22" data-name="패스 22" d="M60.015,7.508V4H56.508V7.508H53v3.508h3.508v3.508h3.508V11.015h3.508V7.508Z" transform="translate(32.939 -4)" fill="#fff"/>
    <path id="패스_23" data-name="패스 23" d="M38.508,14.523h3.508V11.015h3.508V7.508H42.015V4H38.508V7.508H35v3.508h3.508Z" transform="translate(19.369 -4)" fill="#fff"/>
    <path id="패스_24" data-name="패스 24" d="M72.246,55.077H48.569a15.785,15.785,0,1,1,0-31.569h5.262a1.754,1.754,0,0,0,0-3.508H48.569a19.292,19.292,0,1,0,0,38.585H72.246a11.4,11.4,0,1,1,0,22.8H18.754a1.754,1.754,0,0,0,0,3.508H72.246a14.908,14.908,0,1,0,0-29.816Z" transform="translate(5.8 8.062)" fill="#fff"/>
  </g>
</svg>
