<svg id="noun_wing_634199" xmlns="http://www.w3.org/2000/svg" width="119.609" height="81.037" viewBox="0 0 119.609 81.037">
  <g id="그룹_28" data-name="그룹 28">
    <path id="패스_8" data-name="패스 8" d="M116.622,1.071c-.715-.383-1.276,0-1.812.357a10.717,10.717,0,0,1-1.276,1.429c-.179.2-.562.383-.74.74-.179,0-.383.383-.536.383h0c-.179.153-.357.332-.357.332a19.853,19.853,0,0,1-2.91,2.552,4.327,4.327,0,0,1-1.429,1.276,4.079,4.079,0,0,0-.715.536h-.179s-.179.357-.383.357a27.624,27.624,0,0,1-3.42,1.608c-.536.179-1.072.51-1.812.715a.184.184,0,0,1-.2.179h-.357a2.474,2.474,0,0,1-1.072.383c-1.608.357-3.063.715-4.875,1.072a52.528,52.528,0,0,1-10.669.893,103.1,103.1,0,0,1-21.134-2.348C56.769,10.438,50.8,9.213,45,8.294c-9.75-1.429-19.883-2.17-29.633-.179a31.833,31.833,0,0,0-8.7,3.42A16.891,16.891,0,0,0,.157,17.355c0,.179.383.357.536.357a26.4,26.4,0,0,1,5.079-3.982,20.535,20.535,0,0,1,6.3-2.17,45.258,45.258,0,0,1,6.917-1.48c2.144,0,5.028-.179,7.4-.179a130.851,130.851,0,0,1,14.625,1.251,5.5,5.5,0,0,1,1.812.2c.179,0,.383.179.715.179h.74c.919.179,1.812.383,2.884.562,3.242.536,6.126,1.276,9.393,1.991a174.062,174.062,0,0,0,21.542,3.267c3.6,0,7.223,0,10.848-.2a77.736,77.736,0,0,0,10.669-1.608,32.276,32.276,0,0,0,9.75-4.722,23.764,23.764,0,0,0,4.16-3.6A27.548,27.548,0,0,0,116.98,2.5,1.5,1.5,0,0,0,116.622,1.071Z" transform="translate(-0.157 -0.912)" fill="#fff"/>
    <g id="그룹_25" data-name="그룹 25" transform="translate(18.122 0.723)">
      <path id="패스_9" data-name="패스 9" d="M2.892,1.923Z" transform="translate(48.794 23.165)" fill="#fff"/>
      <path id="패스_10" data-name="패스 10" d="M102.273,8.7a17.494,17.494,0,0,0-.893-3.624,10.387,10.387,0,0,0-.74-2.17,4.119,4.119,0,0,1-.715-1.072,2.929,2.929,0,0,0-.919-.74.813.813,0,0,0-1.276.715,1.925,1.925,0,0,0,.383,1.276A1.381,1.381,0,0,1,98.47,4a9.006,9.006,0,0,1,.919,2.323,12.856,12.856,0,0,1,.536,3.624,16.974,16.974,0,0,1-1.812,6.33H97.73v.383c-.357.153-.357.332-.51.715-.2,0-.2.357-.536.536,0,.2,0,.2-.179.2-.23.153-.23.153-.23.332h0a4.381,4.381,0,0,1-1.072.919.553.553,0,0,1-.357.179l-.179.179c-.179.179-.536.179-.715.357a.709.709,0,0,1-.562.179h-.179l-.357.357h-2.5a4.4,4.4,0,0,1-1.634-.536,17.311,17.311,0,0,1-1.787-.919s-.383-.179-.383-.357h-.383a1.573,1.573,0,0,0-.715-.357.8.8,0,0,0-1.072,1.1c0,.357.357.715.536,1.072a10.723,10.723,0,0,0,.893,2.2v.536h0c0,.179,0,.179.179.179v1.429a.624.624,0,0,0-.179.357h0c0,.383,0,.383-.179.536h0v.179c-.2,0-.2,0-.2.383H85.07a.553.553,0,0,1-.179.357c-.2,0-.2,0-.383.2a.175.175,0,0,0-.179.179.887.887,0,0,0-.715.357h-.383s-.357,0-.357.2a2.812,2.812,0,0,1-1.046.128h-.893c-.383,0-.919.179-1.276,0H77.107l-.383-.179a1.454,1.454,0,0,0-.51-.2,2.776,2.776,0,0,1-1.276-.357c-.536,0-1.1-.383-1.455-.383v-.153h0l-.332-.153c-.179,0-.357-.179-.715-.383a13.43,13.43,0,0,1-2.17-1.455,3.717,3.717,0,0,0-1.1-.689v-.179c0-.179-.179-.179-.357-.179,0-.383-.179-.383-.383-.536-.51-.562-1.429.179-1.429.893.179.153.383.357.383.536V24.6c-.383.715-.2,1.072-.2,1.812a4.115,4.115,0,0,0,.2,1.455v.715h0a2.7,2.7,0,0,1-.383,1.1v.179h0v.536h-.179a.624.624,0,0,0-.179.357h0a.554.554,0,0,0-.383.2v.179h-.332a.59.59,0,0,0-.383.179h0a.552.552,0,0,1-.357.153H62.66c0-.179-.383-.179-.383-.179a3.3,3.3,0,0,0-1.225-.179,11.6,11.6,0,0,0-2.348-.893c0-.2,0-.2-.179-.2h-.2a.928.928,0,0,0-.715-.357,2.88,2.88,0,0,0-1.251-.715,26.336,26.336,0,0,0-2.706-1.812c0-.383-.383-.383-.383-.536a.739.739,0,0,1-.383-.179v-.179a.5.5,0,0,0-.332-.2l-.383-.357c-.179-.179-.357-.357-.536-.357a3.89,3.89,0,0,0-.919-1.072.35.35,0,0,0-.357-.357,1.379,1.379,0,0,0-.383-.893c-.332-.893-1.582-.562-1.787.536-.179.51-.179,1.046-.357,1.761v1.455h0a6.575,6.575,0,0,1-.383,2.706v.74a.8.8,0,0,0-.306.74.553.553,0,0,1-.357.179c0,.357,0,.357-.2.357v.2H46.4c0,.179,0,.179-.383.179v.179a.624.624,0,0,1-.357.179h-.383c-.128.179-.306.179-.689.357h-.715c-.357,0-.357-.179-.715-.179H42.8a.676.676,0,0,0-.562-.2,6.817,6.817,0,0,1-1.991-.715c-.179,0-.383,0-.383-.179h-.179a2.1,2.1,0,0,1-.868-.562,5.879,5.879,0,0,1-1.659-.893,9.035,9.035,0,0,1-1.608-1.276c-.179,0-.383-.357-.715-.536,0-.179-.383-.179-.383-.357,0,0,0-.2-.179-.2h0a14.007,14.007,0,0,1-2.706-2.884,18.9,18.9,0,0,1-2.17-2.859.527.527,0,0,0-.715-.179c-.383-.715-1.812-.179-1.812.562s-.179,1.455-.179,1.787a9.331,9.331,0,0,0-.179,2.144v2.935a22.351,22.351,0,0,1-.715,2.706v.179h0a.972.972,0,0,1-.2.715c-.179.357-.357.715-.562,1.1a.553.553,0,0,1-.179.357h0c-.179,0-.179,0-.179.179,0,.2-.383.536-.536.919-.179,0-.179,0-.179.179s-.153.153-.153.153c-.2.2-.562.383-.74.536l-.2.179h-.357c-.179.383-.357.383-.689.383v.179h0c-.383,0-.383.179-.536.179h-1.1c-.179,0-.179.2-.357.2a1.273,1.273,0,0,1-.919-.2H17.126c-.715-.357-1.455-.357-2.17-.74-.2,0-.383-.357-.715-.357l-.383-.153a.629.629,0,0,0-.562-.2c-1.455-.893-2.706-1.787-4.16-2.884,0,0-.179-.383-.357-.383h0c0-.179-.2-.179-.383-.357-.357-.357-.51-.536-.868-.893A8.838,8.838,0,0,1,5.9,28.938a16.007,16.007,0,0,1-2.5-3.446,15.856,15.856,0,0,1-.919-1.965A4.439,4.439,0,0,1,1.4,21.715c-.2-.357-.536,0-.536.383a8.358,8.358,0,0,0,.357,2.859c.383.715.74,1.787,1.1,2.527A20.782,20.782,0,0,0,5.181,32.2a23.12,23.12,0,0,0,7.581,6.483c2.91,1.1,5.794,1.812,8.678,1.1a10.089,10.089,0,0,0,6.891-5.794,16.178,16.178,0,0,0,1.276-5.054c0-.715.179-1.276.179-1.812V27.3a18.992,18.992,0,0,0,3.624,3.8,16.415,16.415,0,0,0,8.882,4.339,7.367,7.367,0,0,0,7.019-2.527,9.815,9.815,0,0,0,1.455-3.982v-.715c1.1,1.251,2.552,2.17,3.65,3.242a17.491,17.491,0,0,0,9.316,3.267,7.049,7.049,0,0,0,5.819-2.884,9.126,9.126,0,0,0,1.1-3.267v-.357a13.669,13.669,0,0,0,4.16,1.787,14.313,14.313,0,0,0,9.929-.179,7.711,7.711,0,0,0,3.982-4.518,10.065,10.065,0,0,0,0-2.323,5.671,5.671,0,0,0,1.812.179c2.144.383,4.492-.715,6.3-1.787A14.438,14.438,0,0,0,102.273,8.7Z" transform="translate(-0.867 -0.94)" fill="#fff"/>
    </g>
    <g id="그룹_26" data-name="그룹 26" transform="translate(13.017 18.805)">
      <path id="패스_11" data-name="패스 11" d="M2.58,2.66Z" transform="translate(46.247 23.157)" fill="#fff"/>
      <path id="패스_12" data-name="패스 12" d="M95.437,8.655c-.383-1.276-.715-2.323-1.1-3.42a12.291,12.291,0,0,0-.893-1.991,3.876,3.876,0,0,0-.562-.893,1.537,1.537,0,0,0-1.072-.562c-.383-.357-1.1,0-1.1.715.179.383.179.715.357,1.1.383.383.383.562.74.919a6.559,6.559,0,0,1,.715,1.991,11.72,11.72,0,0,1,.74,3.573A13.7,13.7,0,0,1,91.813,15.9a.184.184,0,0,1-.2.179c0,.2-.179.2-.179.383s-.153.332-.357.536c0,.357-.357.357-.357.715a.641.641,0,0,0-.383.179v.179h0c-.332.383-.715.715-1.046,1.1a.59.59,0,0,0-.383.179v.179c-.357,0-.357.2-.715.383-.179,0-.357.179-.536.383h-.562a2.125,2.125,0,0,1-.536.179c-.2.153-.2.153-.357.153H84.743a4.405,4.405,0,0,0-1.634-.357,4.906,4.906,0,0,0-1.455-.74c-.153-.357-.332-.357-.51-.357h-.179a1.129,1.129,0,0,0-.919-.383c-.536-.357-1.276.383-.893,1.1,0,.383.357.536.715.893a4.855,4.855,0,0,0,.715,1.965c0,.179.179.383.179.536h0l.2.179V25.3h0c-.2,0-.2.357-.383.357h0c0,.383,0,.383-.179.383l-.153.153c0,.179,0,.179-.2.383a.175.175,0,0,0-.179.179h-.383c-.153.357-.332.357-.689.536a.175.175,0,0,1-.179.179h-.536a1.451,1.451,0,0,1-.919.383h-.715a3.547,3.547,0,0,1-1.276.179H73v-.179H71.9a3.637,3.637,0,0,1-1.276-.383,2.776,2.776,0,0,1-1.276-.357h0c-.179,0-.357,0-.357-.2a1.216,1.216,0,0,0-.715-.153A16.765,16.765,0,0,1,66.136,25.3a3.6,3.6,0,0,1-.919-.715h-.179a.59.59,0,0,0-.179-.383.874.874,0,0,1-.536-.357c-.536-.357-1.455.179-1.1.919,0,.179,0,.536.2.536v.357a3.139,3.139,0,0,0-.2,1.455c.2.536.2,1.072.383,1.455v.74h0v1.072H63.43c0,.383,0,.383-.2.536v.179l-.179.2v.179h-.179l-.179.179a.2.2,0,0,0-.2.2h-.357c-.332.153-.332.153-.51.153,0,.179-.179.179-.357.179H58.912a2.634,2.634,0,0,0-1.123-.357,5.236,5.236,0,0,1-2.17-.74h-.357c-.2,0-.383-.179-.715-.357-.357-.179-.715-.383-1.251-.715-.944-.383-1.608-.919-2.706-1.455,0-.2-.383-.383-.383-.383l-.153-.153-.179-.179c-.179,0-.179-.2-.383-.383h-.357c0-.357-.383-.357-.383-.536a5.424,5.424,0,0,1-1.046-.893.434.434,0,0,0-.383-.383.928.928,0,0,0-.357-.715c-.357-.74-1.455-.357-1.634.357a6.882,6.882,0,0,0-.179,1.812v1.455h0V31.09a.635.635,0,0,1-.179.383c0,.383,0,.383-.2.383,0,.357,0,.536-.179.715l-.153.332a.641.641,0,0,1-.179.383h-.2a.553.553,0,0,1-.179.357h-.357c-.179.153-.179.153-.179.357h-.715a.624.624,0,0,0-.357.179H41.2A.739.739,0,0,1,40.816,34H40.1a7.559,7.559,0,0,1-1.787-.536.635.635,0,0,1-.383-.179h-.2a3.187,3.187,0,0,1-.868-.383c-.383-.357-1.1-.536-1.455-.893a4.619,4.619,0,0,1-1.634-.919c-.179-.179-.562-.357-.715-.74-.179,0-.179,0-.357-.179a.184.184,0,0,1-.2-.179h0A12.083,12.083,0,0,1,29.79,27.44a24.519,24.519,0,0,1-2.17-2.552.8.8,0,0,0-.74-.306,1.014,1.014,0,0,0-1.608.715c0,.715-.2,1.455-.2,1.812a5.819,5.819,0,0,0,.2,1.965v.919h0v.357a3.717,3.717,0,0,1-.2,1.48c0,.893-.179,1.787-.179,2.527-.179,0-.179.2-.179.2v.179c-.2,0-.2.357-.2.357a2.429,2.429,0,0,1-.357,1.072c0,.179,0,.357-.179.357a.2.2,0,0,1-.2.2v.179c0,.179-.357.357-.357.715a.409.409,0,0,0-.383.357h0c-.281.332-.281.332-.638.715h-.179a.175.175,0,0,0-.179.179,1.5,1.5,0,0,0-.715.536h-.562a1.365,1.365,0,0,1-.893.357H16.773c-.562-.179-1.276-.357-1.991-.562-.179-.179-.357-.179-.74-.357L13.71,38.7a.563.563,0,0,1-.536-.2,14.4,14.4,0,0,1-3.829-2.348c-.357-.2-.357-.357-.715-.357h0a.553.553,0,0,0-.179-.357,9.27,9.27,0,0,1-.868-.715A17.329,17.329,0,0,1,5.772,32.9c-.74-1.072-1.659-2.17-2.4-3.267-.332-.357-.715-1.072-1.072-1.455-.357-.715-.919-1.072-1.1-1.812-.179-.357-.536,0-.536.383A20.2,20.2,0,0,0,1.382,29.3a6.865,6.865,0,0,0,1.1,2.552,32.63,32.63,0,0,0,2.91,4.288,23.029,23.029,0,0,0,7.581,5.437,12.662,12.662,0,0,0,8.168.715,9.445,9.445,0,0,0,5.922-5.819,11.955,11.955,0,0,0,1.1-5.028V29.993h0a21.168,21.168,0,0,0,3.624,3.624,18.6,18.6,0,0,0,8.678,3.6,7.361,7.361,0,0,0,6.33-2.859,6.06,6.06,0,0,0,1.276-3.982v-.536a17.558,17.558,0,0,0,3.65,2.706,15.2,15.2,0,0,0,8.653,2.527A6.215,6.215,0,0,0,65.8,32.366a6.251,6.251,0,0,0,.715-3.267v-.357a21.781,21.781,0,0,0,4.135,1.608,13.74,13.74,0,0,0,9.24-.893,6.281,6.281,0,0,0,3.6-4.339,10.545,10.545,0,0,0,0-2.374,4.275,4.275,0,0,0,1.634.383,9.831,9.831,0,0,0,5.794-2.348A13.529,13.529,0,0,0,95.437,8.655Z" transform="translate(-0.667 -1.649)" fill="#fff"/>
    </g>
    <g id="그룹_27" data-name="그룹 27" transform="translate(9.75 36.291)">
      <path id="패스_13" data-name="패스 13" d="M2.325,3.426Z" transform="translate(43.261 24.456)" fill="#fff"/>
      <path id="패스_14" data-name="패스 14" d="M87.32,8.495a20.343,20.343,0,0,0-1.072-3.267,15.245,15.245,0,0,1-1.1-1.582c-.153-.179-.357-.562-.689-.919a1.365,1.365,0,0,0-.893-.357c-.536-.179-1.1.357-.919.715a2.7,2.7,0,0,0,.383,1.1,9.122,9.122,0,0,1,.715.664,9.047,9.047,0,0,1,.893,1.991,9.419,9.419,0,0,1,.893,3.088,13.1,13.1,0,0,1-.74,5.819H84.64a.624.624,0,0,1-.179.357c0,.179-.179.383-.357.715,0,0-.2.383-.383.383v.357l-.153.2v.179a3.8,3.8,0,0,1-.919.868c0,.179-.179.179-.357.179v.153c-.179.2-.357.2-.536.383s-.357.179-.562.357h0a.522.522,0,0,1-.332.179c-.179,0-.383.179-.715.179,0,.179,0,.179-.2.179H78.693a3.807,3.807,0,0,1-1.48-.179,6.807,6.807,0,0,1-1.787-.536.739.739,0,0,0-.383-.179l-.179-.179a1.442,1.442,0,0,1-.893-.2c-.536-.153-1.1.536-.74,1.276,0,.2.383.383.74.715a8.128,8.128,0,0,0,.893,1.838.59.59,0,0,1,.179.383v.332c.179.383.383.536.383.715v.74h0v.2c0,.179-.2.179-.2.357h0l-.179.153v.383h0a.384.384,0,0,0-.357.357.554.554,0,0,0-.383.2v.179c-.357,0-.536.383-.715.383h-.153v.179c-.2,0-.2.179-.536.179-.179,0-.383.179-.715.383H71.47a3.97,3.97,0,0,1-1.149.281H67.105a2.318,2.318,0,0,1-1.1-.179c-.383,0-.715-.179-1.276-.179h-.179s0-.2-.179-.2a.923.923,0,0,0-.51-.153c-.74-.357-1.455-.715-2.17-1.1-.383-.179-.766-.332-1.1-.51v-.2h-.383l-.357-.357c-.715-.536-1.429.179-1.1.74,0,.357.179.357.383.715h0a4.222,4.222,0,0,0,0,1.608,2.687,2.687,0,0,0,.357,1.276v.715h0v1.1h0v.562c-.179.179-.179.179-.357.179h0v.383h-.2c-.179,0-.179.179-.179.357H58.4c-.2,0-.383,0-.383.179a.605.605,0,0,0-.357.2H54.42c-.715,0-1.455-.383-2.17-.383l-.2-.179h-.179c-.128-.2-.306-.2-.689-.2a7.606,7.606,0,0,0-1.251-.536c-.919-.383-1.634-.919-2.527-1.276-.2,0-.2-.179-.536-.383h0a.635.635,0,0,1-.383-.179c0-.179-.179-.179-.357-.179a.6.6,0,0,0-.2-.383c-.179,0-.357,0-.536-.357a1.238,1.238,0,0,1-.919-.715c-.179,0-.179-.2-.357-.383-.2,0-.2-.357-.536-.536-.357-.51-1.429-.153-1.429.562V30.19a1.074,1.074,0,0,0,.179.715v.357h0v.2a10.99,10.99,0,0,1,.179,2.323v.383a.553.553,0,0,0-.179.357,1.074,1.074,0,0,0-.179.715.612.612,0,0,0-.2.383c-.179,0-.179,0-.179.357h0a.523.523,0,0,0-.357.2v.179H41.02v.357h-.664c0,.2-.357.2-.357.2,0,.179-.383.179-.383.179H38.187A8.622,8.622,0,0,0,36.2,36.7a.175.175,0,0,1-.179-.179h-.383c-.179-.179-.357-.179-.715-.179a8.289,8.289,0,0,0-1.455-.715,10.317,10.317,0,0,0-1.608-.74c-.2-.357-.562-.357-.74-.715h-.383l-.153-.2h0v-.179a21.609,21.609,0,0,1-2.91-1.965c-.74-.715-1.455-1.608-2.144-2.348-.179,0-.357-.179-.715,0-.357-.715-1.455,0-1.455.715V31.8a4.617,4.617,0,0,0,.383,1.787v.893h0v1.838a8.815,8.815,0,0,1,0,2.17v.383h0V39.4a1.268,1.268,0,0,0-.383.919.656.656,0,0,1-.179.536h0a.175.175,0,0,1-.179.179c0,.179,0,.357-.383.715a.553.553,0,0,1-.179.357h0c-.153.383-.357.383-.536.74h-.357v.383c-.383,0-.383.179-.74.383h0c-.179,0-.357,0-.357.179a1.537,1.537,0,0,1-.715.153c-.179,0-.383,0-.383.179h-.357c-.179.2-.357.2-.715.2H16.849a6.27,6.27,0,0,1-1.991-.383h-.74c-.2-.179-.357-.179-.357-.357h-.536A21.472,21.472,0,0,1,9.243,41.6c0-.2-.179-.2-.357-.2h0c0-.179-.179-.179-.383-.357-.357,0-.536-.383-.893-.715A15.083,15.083,0,0,1,5.8,38.868a19.842,19.842,0,0,1-2.348-2.706c-.536-.536-.715-.919-1.276-1.48A6.437,6.437,0,0,1,.9,33.1a.358.358,0,0,0-.357.383c.357.868.357,1.761.715,2.5a12.021,12.021,0,0,0,1.276,2.17,26.276,26.276,0,0,0,3.063,3.8A22.526,22.526,0,0,0,13.2,46.474a12.943,12.943,0,0,0,7.81,0,9.325,9.325,0,0,0,5.207-6.151,18.748,18.748,0,0,0,.383-4.7,4.508,4.508,0,0,0-.179-1.455c.179,0,.179,0,.179.179a26.592,26.592,0,0,0,3.6,2.884,17.182,17.182,0,0,0,8.346,2.706,6.3,6.3,0,0,0,5.768-3.267,6.528,6.528,0,0,0,.715-3.6V32.36A11.055,11.055,0,0,0,48.651,34.5a14.325,14.325,0,0,0,8.5,1.812,6.577,6.577,0,0,0,4.722-3.242,5.539,5.539,0,0,0,.536-2.884v-.383c1.072.383,2.527.715,3.778,1.1a12.661,12.661,0,0,0,8.5-1.608,5.52,5.52,0,0,0,3.063-4.365,8.9,8.9,0,0,0-.179-2.17,2.041,2.041,0,0,0,1.455,0,8.816,8.816,0,0,0,5.437-2.706A12.275,12.275,0,0,0,87.32,8.495Z" transform="translate(-0.539 -2.334)" fill="#fff"/>
    </g>
  </g>
</svg>
