<svg id="noun_focus_2312009" xmlns="http://www.w3.org/2000/svg" width="98.756" height="98.754" viewBox="0 0 98.756 98.754">
  <path id="패스_15" data-name="패스 15" d="M61.9,38.1A16.821,16.821,0,1,0,66.824,50,16.708,16.708,0,0,0,61.9,38.1ZM59.067,59.068A12.822,12.822,0,1,1,62.824,50,12.739,12.739,0,0,1,59.067,59.068Z" transform="translate(-0.622 -0.623)" fill="#fff"/>
  <path id="패스_16" data-name="패스 16" d="M26.683,29.513l-10.111-1.6a2,2,0,1,0-.625,3.951l16.188,2.56a2,2,0,0,0,.276.022c.012,0,.022,0,.034,0h0c.012,0,.023,0,.035,0a1.972,1.972,0,0,0,.275-.022l.018-.005.044-.006c.027-.005.054-.016.081-.022a2.312,2.312,0,0,0,.247-.068c.009,0,.018-.009.027-.013.041-.016.08-.038.12-.057a1.882,1.882,0,0,0,.185-.093l.047-.029c.033-.021.063-.048.1-.072a1.786,1.786,0,0,0,.153-.119c.021-.019.042-.037.062-.057s.017-.012.024-.02.03-.039.046-.057a1.716,1.716,0,0,0,.119-.137l.063-.084c.02-.028.037-.056.055-.085.029-.046.054-.093.079-.142s.038-.073.054-.111.025-.057.036-.086c.018-.046.031-.094.045-.142s.028-.093.039-.141c.006-.027.012-.054.017-.082,0-.012.007-.023.009-.035.005-.035,0-.069.006-.1.006-.055.013-.108.014-.164q0-.045,0-.09c0-.056-.008-.109-.014-.164,0-.035,0-.069-.006-.1l-2.558-16.19a2,2,0,1,0-3.952.624l1.6,10.114L4.036,1.209A2,2,0,0,0,1.208,4.037Z" transform="translate(-0.622 -0.623)" fill="#fff"/>
  <path id="패스_17" data-name="패스 17" d="M98.792,95.963,73.316,70.488l10.111,1.6a2,2,0,0,0,.625-3.952L67.864,65.575c-.04-.006-.079,0-.119-.006s-.091-.012-.138-.014H67.5c-.046,0-.09.009-.136.014s-.08,0-.121.006c-.012,0-.021.007-.033.009-.034.006-.067.015-.1.022s-.08.023-.12.035-.109.028-.161.048c-.03.012-.059.027-.088.041s-.066.035-.1.052c-.055.029-.111.054-.162.087-.024.015-.046.034-.07.05s-.063.051-.094.075c-.05.04-.1.077-.146.121-.008.009-.018.014-.025.021s-.017.022-.027.033c-.031.032-.057.068-.086.1a1.7,1.7,0,0,0-.113.141c-.015.021-.03.041-.044.063-.024.038-.043.081-.064.121s-.057.1-.08.153c-.011.025-.022.049-.032.074-.017.041-.025.085-.039.127s-.036.11-.049.168c-.006.028-.013.057-.018.085,0,.012-.007.021-.009.033-.006.035,0,.07-.006.105-.006.054-.013.106-.014.161,0,.031,0,.061,0,.092,0,.055.008.107.014.161,0,.035,0,.07.006.105L68.136,84.05a2,2,0,0,0,1.973,1.688,2.108,2.108,0,0,0,.315-.024,2,2,0,0,0,1.663-2.288l-1.6-10.112L95.965,98.79a2,2,0,1,0,2.827-2.827Z" transform="translate(-0.622 -0.623)" fill="#fff"/>
  <path id="패스_18" data-name="패스 18" d="M65.557,32.495c0,.055.008.107.014.161,0,.036,0,.07.006.1,0,.012.007.023.009.035,0,.028.012.055.018.083.011.047.024.092.038.138s.027.1.045.143c.012.03.024.059.037.088s.035.072.054.108a1.529,1.529,0,0,0,.079.143c.018.029.035.057.055.085l.062.083c.038.049.078.094.12.139.017.018.028.039.046.056s.017.013.024.02.04.038.061.056c.05.044.1.083.158.122.03.022.06.048.092.069l.047.03c.061.037.126.065.19.1.038.018.074.039.113.054a.224.224,0,0,1,.027.013,2.033,2.033,0,0,0,.257.071c.023.005.046.015.07.02l.044.007.018,0a2.057,2.057,0,0,0,.269.021c.014,0,.027,0,.041,0h.006c.014,0,.026,0,.041,0a2.044,2.044,0,0,0,.269-.021l.045-.007h0l16.142-2.552a2,2,0,1,0-.625-3.951l-10.111,1.6L98.791,4.037a2,2,0,1,0-2.828-2.828L70.487,26.685l1.6-10.113a2,2,0,1,0-3.951-.624L65.576,32.137c-.006.034,0,.067-.006.1-.006.055-.014.11-.015.166C65.556,32.435,65.556,32.464,65.557,32.495Z" transform="translate(-0.622 -0.623)" fill="#fff"/>
  <path id="패스_19" data-name="패스 19" d="M34.444,67.507c0-.056-.008-.108-.014-.163,0-.035,0-.069-.006-.1,0-.012-.007-.021-.009-.033q-.008-.042-.018-.084c-.013-.058-.031-.113-.049-.169s-.023-.087-.039-.128c-.009-.024-.021-.048-.031-.071a1.6,1.6,0,0,0-.08-.154c-.023-.041-.042-.085-.067-.124-.013-.021-.028-.04-.042-.06-.033-.049-.072-.092-.109-.137s-.061-.078-.1-.113a.311.311,0,0,0-.023-.028c-.008-.008-.017-.013-.025-.021-.042-.041-.088-.075-.134-.112s-.075-.063-.116-.092l-.061-.043c-.044-.028-.093-.05-.141-.075s-.09-.051-.138-.071c-.024-.011-.048-.023-.073-.032-.043-.018-.089-.027-.134-.041s-.108-.035-.165-.048c-.028-.007-.055-.013-.083-.018-.011,0-.021-.007-.033-.009-.034,0-.067,0-.1-.006-.056-.006-.111-.014-.168-.015h-.094c-.048,0-.1.008-.144.013s-.078,0-.118.007L15.944,68.136a2,2,0,0,0,.309,3.976,2.085,2.085,0,0,0,.314-.024l10.113-1.6L1.208,95.963a2,2,0,1,0,2.828,2.828L29.512,73.316l-1.6,10.111a2,2,0,1,0,3.951.624l2.56-16.188c.005-.035,0-.069.006-.1.006-.055.013-.107.014-.163C34.445,67.566,34.445,67.537,34.444,67.507Z" transform="translate(-0.622 -0.623)" fill="#fff"/>
</svg>
